<?xml version="1.0" standalone="no"?>
<!DOCTYPE svg PUBLIC "-//W3C//DTD SVG 20010904//EN"
 "http://www.w3.org/TR/2001/REC-SVG-20010904/DTD/svg10.dtd">
<svg version="1.0" xmlns="http://www.w3.org/2000/svg"
 width="1080.000000pt" height="1080.000000pt" viewBox="0 0 1080.000000 1080.000000"
 preserveAspectRatio="xMidYMid meet">
<metadata>
Created by potrace 1.14, written by Peter Selinger 2001-2017
</metadata>
<g transform="translate(0.000000,1080.000000) scale(0.100000,-0.100000)"
fill="#000000" stroke="none">
<path d="M0 5400 l0 -5400 5400 0 5400 0 0 5400 0 5400 -5400 0 -5400 0 0
-5400z m5530 2020 c96 -15 93 -12 65 -75 -17 -40 -21 -57 -12 -60 7 -2 46 -13
89 -25 l76 -22 58 41 57 41 46 -25 c62 -34 181 -122 181 -134 0 -6 -20 -25
-43 -43 l-44 -33 62 -68 63 -68 70 7 71 6 21 -33 c29 -47 88 -171 95 -201 6
-24 4 -25 -50 -31 -32 -3 -59 -7 -60 -9 -2 -2 7 -43 19 -92 l22 -89 61 -27
c56 -26 62 -31 65 -62 5 -49 -11 -231 -21 -241 -5 -5 -32 1 -60 14 -28 12 -53
20 -54 18 -5 -8 -47 -159 -47 -170 0 -6 16 -34 35 -60 19 -27 35 -55 35 -63 0
-17 -110 -185 -138 -209 -20 -18 -21 -18 -54 27 -18 25 -36 44 -39 43 -4 -1
-35 -28 -69 -60 l-63 -58 7 -73 7 -73 -63 -34 c-82 -44 -159 -78 -179 -79 -17
0 -29 37 -29 87 0 28 12 28 -124 -1 l-60 -12 -27 -65 -27 -64 -59 -3 c-57 -3
-211 13 -222 23 -2 3 5 29 17 57 12 28 20 53 19 55 -2 1 -42 14 -90 28 l-88
25 -54 -41 -54 -41 -58 31 c-65 35 -173 116 -173 131 0 5 20 23 45 41 l44 32
-62 68 -62 68 -72 -6 -71 -6 -28 44 c-36 57 -96 198 -88 210 3 5 24 9 47 9 68
0 70 4 45 103 l-21 86 -64 28 -63 27 0 81 c0 72 14 192 23 201 2 3 27 -5 56
-17 28 -12 53 -20 55 -18 1 2 14 42 29 88 l26 84 -42 54 -41 55 28 54 c16 30
51 85 79 121 l50 66 21 -24 c12 -14 28 -36 37 -49 l16 -24 71 64 c45 40 70 70
68 80 -3 8 -6 39 -8 69 l-3 54 55 34 c64 38 187 89 196 80 3 -3 9 -29 13 -57
3 -28 8 -51 11 -51 3 -1 43 7 89 17 l85 19 30 67 31 68 65 0 c36 0 94 -5 130
-10z m-2478 -2330 c29 -11 68 -33 86 -49 l32 -30 -35 -50 c-20 -28 -44 -53
-54 -56 -10 -3 -43 8 -77 26 -47 25 -67 30 -99 26 -50 -7 -85 -45 -85 -91 0
-43 28 -67 115 -102 151 -60 191 -112 183 -237 -8 -117 -65 -204 -166 -254
-50 -24 -69 -28 -147 -28 -78 0 -98 4 -150 28 -59 28 -105 62 -105 79 0 17 65
97 88 107 20 10 32 6 80 -23 71 -44 101 -51 146 -36 46 15 66 44 66 97 0 55
-19 73 -126 113 -101 38 -145 77 -164 144 -15 56 -7 134 21 193 28 57 110 130
168 147 68 21 161 20 223 -4z m910 -7 c8 -10 77 -129 153 -265 76 -136 141
-245 144 -242 3 3 20 121 36 262 l30 257 88 3 87 3 -6 -43 c-3 -24 -27 -214
-53 -423 l-46 -380 -65 -3 c-42 -2 -71 2 -82 10 -9 7 -80 127 -158 266 -79
139 -145 250 -148 248 -4 -5 -62 -472 -62 -508 0 -16 -11 -18 -85 -18 -84 0
-85 0 -85 25 0 26 85 735 95 793 l6 32 68 0 c52 0 71 -4 83 -17z m1833 -5 c51
-215 185 -805 185 -815 0 -18 -159 -18 -183 0 -10 7 -21 37 -27 72 -21 119 -1
106 -162 103 l-141 -3 -33 -79 c-18 -43 -41 -84 -51 -92 -12 -9 -47 -13 -105
-14 -49 0 -88 1 -88 3 0 2 73 156 161 343 89 186 179 376 200 422 l38 82 100
0 c96 0 101 -1 106 -22z m-2190 -237 c22 -10 48 -28 58 -39 19 -20 18 -21 -10
-56 -36 -46 -54 -51 -108 -31 -27 11 -55 15 -71 11 -63 -16 -114 -116 -114
-223 0 -118 73 -165 161 -102 41 29 70 24 103 -17 l29 -37 -34 -29 c-81 -68
-197 -96 -285 -68 -151 49 -205 243 -118 427 30 63 117 145 176 166 61 22 164
21 213 -2z m3278 -5 c22 -11 50 -36 64 -57 21 -33 25 -47 21 -92 -2 -31 -13
-65 -24 -80 -29 -42 -129 -86 -232 -104 -99 -18 -102 -20 -78 -77 26 -62 111
-71 186 -20 49 34 73 31 110 -13 l31 -38 -33 -29 c-18 -15 -58 -40 -88 -55
-47 -22 -68 -26 -145 -26 -80 0 -95 3 -136 27 -25 15 -57 44 -72 65 -107 156
-16 431 166 502 65 26 173 24 230 -3z m627 6 c44 -23 80 -90 80 -150 0 -44
-36 -377 -45 -419 -5 -22 -10 -23 -95 -23 -80 0 -90 2 -90 18 0 10 9 90 20
178 24 195 25 247 5 264 -22 18 -75 -8 -109 -53 -37 -48 -53 -105 -66 -237 -6
-63 -13 -127 -16 -142 l-6 -28 -89 0 c-78 0 -89 2 -89 18 0 22 59 529 66 560
4 20 10 22 68 22 68 0 80 -7 91 -53 l7 -27 32 27 c73 62 169 80 236 45z m660
7 c36 -8 50 -15 50 -27 0 -9 -16 -141 -35 -292 -19 -151 -35 -276 -35 -277 0
-2 -29 -3 -64 -3 -72 0 -96 14 -96 57 l0 25 -37 -32 c-173 -152 -360 1 -303
248 33 143 156 270 293 302 49 12 170 11 227 -1z m-3164 -21 c-3 -13 -6 -35
-6 -50 0 -19 -40 -78 -140 -207 -77 -99 -140 -183 -140 -186 0 -3 52 -5 115
-5 l115 0 -5 -27 c-2 -16 -7 -45 -10 -65 l-6 -38 -226 0 -226 0 7 47 c7 56 5
52 163 255 l126 163 -112 3 -112 3 7 52 c3 29 7 58 9 65 3 9 57 12 226 12
l221 0 -6 -22z m1232 10 c7 -7 12 -30 12 -51 l0 -40 49 46 c52 49 80 61 127
55 26 -3 29 -6 26 -38 -1 -19 -7 -58 -12 -86 l-11 -51 -39 11 c-34 9 -44 7
-67 -10 -52 -37 -80 -114 -100 -274 l-18 -145 -87 -3 -88 -3 0 28 c0 32 59
541 65 561 6 16 127 16 143 0z m-4498 -1182 c0 -19 -4 -38 -10 -41 -13 -8 -13
-27 1 -62 10 -27 11 -25 37 52 25 75 29 80 58 83 33 3 38 -5 74 -122 13 -41
21 -37 34 17 5 20 2 29 -9 33 -9 4 -15 19 -15 40 l0 34 85 0 85 0 0 -34 c0
-24 -5 -35 -18 -38 -13 -4 -31 -40 -62 -127 l-43 -122 -36 3 c-34 3 -37 6 -61
65 -14 35 -27 63 -30 63 -5 0 -34 -68 -45 -107 -5 -18 -14 -23 -39 -23 -19 0
-38 6 -43 13 -6 6 -28 61 -49 121 -26 74 -45 111 -56 114 -13 3 -18 14 -18 38
l0 34 80 0 80 0 0 -34z m530 -1 c0 -24 -5 -35 -15 -35 -9 0 -15 -9 -15 -25 0
-23 3 -25 50 -25 47 0 50 2 50 25 0 17 -5 25 -18 25 -15 0 -17 6 -14 35 l4 35
79 0 79 0 0 -34 c0 -25 -5 -35 -20 -39 -18 -5 -20 -14 -20 -87 0 -73 2 -82 20
-87 15 -4 20 -14 20 -39 l0 -34 -80 0 -80 0 0 35 c0 24 5 35 15 35 10 0 15 10
15 30 0 29 -1 30 -50 30 -49 0 -50 -1 -50 -30 0 -20 5 -30 15 -30 10 0 15 -11
15 -35 l0 -35 -80 0 -80 0 0 35 c0 23 5 35 14 35 16 0 23 42 18 123 -3 41 -8
57 -18 57 -9 0 -14 12 -14 35 l0 35 80 0 80 0 0 -35z m510 -20 l0 -55 -35 0
c-24 0 -35 5 -35 15 0 11 -11 15 -41 15 -36 0 -40 -2 -37 -22 2 -19 10 -24 41
-26 36 -3 38 -5 35 -35 -3 -29 -6 -32 -40 -35 -30 -3 -38 -7 -38 -23 0 -16 7
-19 45 -19 33 0 45 4 45 15 0 11 11 15 36 15 l35 0 -3 -52 -3 -53 -140 0 -140
0 0 35 c0 28 4 34 18 32 15 -3 17 7 17 82 0 75 -2 87 -20 96 -19 10 -27 49
-13 63 3 4 66 7 140 7 l133 0 0 -55z m318 3 c-3 -52 -4 -53 -35 -56 -25 -2
-33 1 -33 12 0 12 -10 16 -40 16 -36 0 -40 -2 -40 -25 0 -22 4 -25 35 -25 33
0 35 -2 35 -35 0 -33 -2 -35 -35 -35 -28 0 -35 -4 -35 -20 0 -17 7 -20 40 -20
30 0 40 4 40 16 0 11 9 14 36 12 l37 -3 1 -50 1 -50 -143 -3 -143 -3 3 38 c2
21 7 36 12 35 17 -7 23 23 18 101 -3 57 -8 77 -18 77 -9 0 -14 12 -14 35 l0
35 141 0 140 0 -3 -52z m202 12 c0 -34 -3 -40 -20 -40 -19 0 -21 -5 -18 -77
l3 -78 35 0 c29 0 36 4 38 23 3 18 10 22 43 22 l39 0 0 -65 0 -65 -140 0 -140
0 0 35 c0 24 5 35 15 35 12 0 15 16 15 84 0 75 -2 84 -20 89 -14 4 -20 14 -20
34 0 16 3 33 7 36 3 4 42 7 85 7 l78 0 0 -40z m371 23 c25 -15 29 -23 27 -53
-3 -32 -6 -35 -37 -38 -27 -3 -39 2 -52 19 -15 20 -21 22 -46 13 -46 -16 -35
-38 22 -45 71 -9 111 -32 124 -72 14 -42 3 -76 -35 -106 -34 -27 -148 -30
-200 -5 -33 16 -35 20 -32 58 3 40 4 41 41 44 32 3 37 0 37 -17 0 -24 36 -37
75 -27 25 6 34 29 16 41 -5 3 -33 10 -62 15 -68 13 -96 32 -104 70 -9 40 8 81
43 103 37 23 144 23 183 0z m407 -21 c3 -27 -1 -35 -17 -39 -19 -5 -21 -13
-21 -84 l0 -79 34 0 c28 0 35 4 38 23 3 19 9 22 43 22 l40 0 0 -60 0 -60 -140
0 -140 0 -3 31 c-2 24 1 33 16 36 17 5 19 15 19 87 0 72 -2 81 -18 81 -15 0
-19 8 -19 40 l0 41 83 -3 82 -3 3 -33z m312 -2 c0 -29 -4 -40 -15 -40 -12 0
-15 -16 -15 -85 0 -67 3 -85 14 -85 21 0 29 -17 22 -46 -6 -23 -10 -24 -86
-24 l-80 0 0 35 c0 24 5 35 15 35 12 0 15 16 15 85 0 69 -3 85 -15 85 -11 0
-15 11 -15 40 l0 40 80 0 80 0 0 -40z m188 -2 c2 -29 0 -38 -12 -38 -10 0 -16
-9 -16 -25 0 -19 4 -24 13 -18 54 35 54 35 49 80 l-5 43 82 0 81 0 0 -40 c0
-33 -3 -40 -20 -40 -11 0 -37 -15 -57 -34 l-37 -34 43 -51 c24 -28 51 -51 62
-51 15 0 19 -7 19 -35 l0 -35 -70 0 c-69 0 -70 0 -70 27 0 14 -11 41 -26 60
-21 28 -28 31 -45 23 -22 -13 -26 -40 -4 -40 10 0 15 -11 15 -35 l0 -35 -75 0
-75 0 0 35 c0 24 5 35 15 35 12 0 15 16 15 85 0 69 -3 85 -15 85 -11 0 -15 11
-15 40 l0 41 73 -3 72 -3 3 -37z m507 -13 c0 -48 -1 -50 -30 -53 -18 -3 -33 2
-41 13 -18 24 -79 17 -79 -10 0 -16 8 -21 38 -23 35 -3 37 -5 37 -38 0 -33 -1
-34 -41 -34 -33 0 -40 -3 -37 -17 4 -25 88 -32 88 -9 0 12 10 16 35 16 l35 0
0 -55 0 -55 -139 0 c-100 0 -140 3 -143 12 -8 22 4 58 18 58 11 0 14 20 14 90
0 73 -3 90 -15 90 -10 0 -15 11 -15 35 l0 36 138 -3 137 -3 0 -50z m367 -1
c24 -31 53 -68 65 -83 l22 -26 1 41 c0 32 -4 43 -18 46 -15 4 -17 13 -14 42
l4 37 77 -3 76 -3 3 -33 c3 -27 -1 -35 -17 -39 -19 -5 -21 -14 -23 -122 l-3
-116 -37 -3 c-35 -3 -39 0 -98 77 -33 45 -62 81 -64 81 -2 0 -3 -18 -3 -40 2
-31 6 -40 20 -40 15 0 18 -7 15 -37 l-3 -38 -80 0 -80 0 -2 34 c-1 25 3 35 18
38 17 5 19 15 19 88 0 74 -2 83 -20 88 -13 3 -20 14 -20 29 0 34 6 38 66 38
52 0 53 0 96 -56z m518 1 l0 -55 -35 0 c-24 0 -35 5 -35 15 0 11 -11 15 -40
15 -36 0 -40 -2 -40 -25 0 -22 4 -25 35 -25 33 0 35 -2 35 -35 0 -33 -2 -35
-35 -35 -28 0 -35 -4 -35 -20 0 -17 7 -20 40 -20 30 0 40 4 40 16 0 12 9 14
37 12 l38 -3 0 -50 0 -50 -143 -3 -143 -3 3 38 c2 21 7 36 12 35 16 -7 21 16
20 95 -1 63 -5 79 -18 81 -11 2 -16 14 -16 38 l0 34 140 0 140 0 0 -55z m188
18 c3 -25 -1 -33 -13 -33 -18 0 -17 -3 14 -84 20 -54 21 -53 49 21 16 43 17
53 6 57 -8 3 -14 20 -14 41 l0 35 79 0 c63 0 80 -3 85 -16 12 -30 6 -53 -15
-59 -13 -4 -30 -28 -46 -63 -82 -188 -78 -182 -122 -182 -48 0 -51 3 -111 148
-31 74 -48 101 -59 100 -12 -2 -17 7 -19 35 l-3 38 83 -3 83 -3 3 -32z m510
-15 c-3 -52 -4 -53 -35 -56 -25 -2 -33 1 -33 12 0 12 -10 16 -40 16 -36 0 -40
-2 -40 -25 0 -22 4 -25 35 -25 33 0 35 -2 35 -35 0 -33 -2 -35 -35 -35 -28 0
-35 -4 -35 -20 0 -17 7 -20 40 -20 30 0 40 4 40 16 0 11 9 14 36 12 l37 -3 1
-50 1 -50 -143 -3 -143 -3 3 38 c2 24 8 37 16 36 14 -3 14 -1 14 97 0 60 -4
76 -16 78 -11 2 -16 15 -16 38 l0 34 141 0 140 0 -3 -52z m292 37 c72 -37 81
-129 18 -174 -18 -12 -18 -14 -2 -32 9 -10 25 -19 36 -19 14 0 18 -8 18 -40
l0 -41 -62 3 c-62 3 -63 4 -66 33 -3 29 -36 75 -54 75 -4 0 -8 -9 -8 -20 0
-11 7 -20 16 -20 11 0 14 -8 12 -32 l-3 -33 -80 0 -80 0 -3 38 c-3 32 0 37 17
37 20 0 21 6 21 85 0 78 -2 85 -20 85 -15 0 -20 7 -20 28 0 16 3 32 7 35 14
14 223 7 253 -8z m535 -1 c44 -21 61 -65 40 -107 -13 -26 -13 -32 0 -50 23
-33 19 -84 -9 -112 -30 -30 -67 -37 -191 -33 l-100 3 -3 33 c-3 27 1 35 17 39
19 5 21 13 21 89 0 77 -2 84 -20 84 -16 0 -20 7 -20 35 l0 35 116 0 c85 0 125
-4 149 -16z m355 -39 l0 -55 -35 0 c-24 0 -35 5 -35 15 0 11 -11 15 -41 15
-36 0 -40 -2 -37 -22 2 -19 10 -24 41 -26 36 -3 38 -5 35 -35 -3 -29 -6 -32
-40 -35 -30 -3 -38 -7 -38 -23 0 -16 7 -19 45 -19 33 0 45 4 45 15 0 11 11 15
36 15 l35 0 -3 -52 -3 -53 -140 0 -140 0 0 35 c0 28 4 34 18 32 15 -3 17 7 17
83 0 78 -2 87 -20 92 -14 4 -20 14 -20 32 0 15 3 31 7 34 3 4 66 7 140 7 l133
0 0 -55z m320 0 l0 -55 -34 0 c-21 0 -36 6 -40 15 -3 9 -19 15 -41 15 -31 0
-35 -3 -35 -25 0 -22 4 -25 40 -25 39 0 39 0 37 -37 -2 -36 -4 -38 -39 -41
-30 -3 -38 -7 -38 -23 0 -13 7 -19 21 -19 17 0 20 -5 17 -32 l-3 -33 -82 -3
-83 -3 0 36 c0 24 4 35 15 35 12 0 15 16 15 85 0 69 -3 85 -15 85 -11 0 -15
11 -15 40 l0 40 140 0 140 0 0 -55z m301 32 c94 -63 93 -219 -3 -277 -48 -29
-149 -27 -203 3 -99 56 -98 223 2 276 56 30 158 29 204 -2z m343 9 c65 -27 80
-131 25 -170 -17 -12 -19 -18 -10 -35 7 -13 22 -21 37 -21 23 0 25 -3 22 -37
l-3 -38 -62 -3 c-62 -3 -63 -3 -63 23 0 32 -35 85 -56 85 -21 0 -17 -37 4 -42
15 -4 18 -12 14 -37 l-4 -31 -79 0 -79 0 0 39 c0 30 4 40 20 44 18 5 20 14 20
86 0 74 -2 81 -20 81 -16 0 -20 7 -20 35 l0 35 110 0 c71 0 122 -5 144 -14z
m381 -20 c10 -52 -1 -76 -36 -76 -17 0 -32 6 -35 15 -4 10 -20 15 -46 15 -35
0 -39 -2 -36 -22 2 -19 10 -24 41 -26 35 -3 37 -5 37 -38 0 -33 -1 -34 -40
-34 -33 0 -40 -3 -40 -20 0 -17 7 -20 45 -20 33 0 45 4 45 15 0 10 11 15 35
15 l35 0 0 -55 0 -55 -139 0 c-85 0 -142 4 -146 10 -12 19 5 69 21 63 11 -4
14 10 14 79 0 72 -3 86 -21 101 -12 11 -18 25 -15 33 3 9 6 20 6 25 0 5 60 9
135 9 l134 0 6 -34z"/>
<path d="M5294 7100 c-80 -11 -191 -50 -262 -92 -80 -47 -201 -170 -250 -253
-124 -211 -136 -477 -32 -688 72 -147 180 -256 325 -327 118 -59 189 -75 330
-75 97 0 134 5 195 24 322 99 522 365 521 691 0 208 -66 365 -216 516 -75 75
-105 98 -175 132 -47 22 -112 47 -145 56 -78 19 -214 27 -291 16z m280 -60
c346 -88 566 -448 491 -805 -8 -38 -33 -108 -56 -155 -55 -111 -178 -237 -286
-293 -378 -196 -839 -12 -969 387 -34 104 -39 273 -11 376 67 244 259 438 493
494 89 22 246 20 338 -4z"/>
<path d="M5274 6995 c-33 -7 -89 -27 -123 -45 -61 -30 -63 -33 -57 -62 8 -42
86 -205 126 -265 139 -205 242 -190 395 56 34 56 95 197 95 222 0 13 -19 28
-61 50 -111 55 -248 72 -375 44z m305 -43 c101 -39 109 -62 61 -168 -29 -64
-103 -183 -122 -195 -5 -3 -26 0 -46 7 -50 18 -105 17 -150 -1 -34 -15 -38
-15 -49 1 -14 20 -17 168 -7 297 8 90 2 87 159 82 72 -2 115 -8 154 -23z
m-148 -378 c17 -21 0 -49 -32 -49 -24 0 -36 23 -25 51 7 19 40 18 57 -2z"/>
<path d="M4852 6667 c-62 -105 -89 -282 -63 -408 14 -66 65 -177 84 -185 17
-6 176 61 254 108 31 18 82 58 114 89 89 86 90 127 7 216 -63 66 -167 132
-282 178 -47 19 -88 35 -90 35 -2 0 -13 -15 -24 -33z m173 -58 c111 -54 179
-106 169 -127 -14 -33 -16 -140 -4 -178 21 -63 7 -67 -195 -60 -103 4 -172 11
-176 18 -14 22 -19 127 -9 195 12 90 35 151 67 181 29 27 37 25 148 -29z m235
-210 c9 -15 8 -24 -1 -35 -27 -33 -78 0 -58 38 13 24 46 23 59 -3z"/>
<path d="M5820 6659 c-194 -81 -341 -209 -326 -283 14 -67 98 -149 226 -220
79 -43 198 -88 211 -80 15 9 56 95 75 159 26 87 24 221 -4 310 -23 74 -60 146
-77 151 -5 2 -53 -15 -105 -37z m162 -148 c4 -4 10 -45 14 -91 10 -137 -36
-292 -91 -306 -31 -8 -211 79 -270 129 -35 31 -37 35 -25 57 18 33 18 127 1
168 -24 56 -5 62 194 55 94 -3 173 -8 177 -12z m-381 -107 c17 -21 0 -49 -32
-49 -24 0 -36 23 -25 51 7 19 40 18 57 -2z"/>
<path d="M5356 6439 c-50 -39 -23 -129 38 -129 38 0 56 10 71 41 18 34 8 69
-27 93 -30 21 -50 20 -82 -5z"/>
<path d="M5345 6272 c-43 -27 -114 -108 -157 -182 -47 -79 -102 -216 -95 -234
3 -8 30 -26 60 -40 161 -76 342 -75 497 2 51 25 55 29 53 60 -2 43 -81 208
-139 290 -80 111 -151 145 -219 104z m86 -38 c17 -21 0 -49 -32 -49 -24 0 -36
23 -25 51 7 19 40 18 57 -2z m-31 -69 c30 0 71 4 92 9 32 7 37 6 44 -16 9 -28
5 -340 -5 -350 -12 -13 -124 -23 -186 -17 -76 7 -168 36 -194 61 -12 10 -21
29 -21 42 0 28 84 197 124 249 26 34 32 37 60 30 17 -4 56 -8 86 -8z"/>
<path d="M5596 4750 c-36 -88 -66 -165 -66 -170 0 -6 41 -10 100 -10 55 0 100
1 100 3 0 13 -60 330 -63 333 -2 3 -34 -68 -71 -156z"/>
<path d="M6708 4723 c-26 -17 -68 -80 -68 -103 0 -15 53 -7 112 17 26 10 40
23 45 41 13 52 -37 78 -89 45z"/>
<path d="M7964 4719 c-41 -12 -110 -87 -123 -135 -14 -49 -14 -149 -1 -173 28
-53 87 -25 129 61 28 56 37 94 55 226 5 35 -2 38 -60 21z"/>
<path d="M6840 3585 c0 -34 1 -35 39 -35 31 0 41 4 46 20 9 30 -12 50 -51 50
-32 0 -34 -2 -34 -35z"/>
<path d="M7360 3595 c0 -25 3 -26 43 -23 34 2 42 7 42 23 0 16 -8 21 -42 23
-40 3 -43 2 -43 -23z"/>
<path d="M7360 3475 c0 -33 2 -35 34 -35 46 0 66 9 66 29 0 27 -21 41 -62 41
-37 0 -38 -1 -38 -35z"/>
<path d="M8330 3607 c-53 -27 -63 -112 -17 -142 47 -30 74 -29 107 3 40 41 40
83 1 123 -32 32 -53 35 -91 16z"/>
<path d="M8690 3586 c0 -35 1 -36 40 -36 70 0 67 62 -4 68 -35 3 -36 2 -36
-32z"/>
</g>
</svg>
